<?xml version="1.0" standalone="no"?>
<!DOCTYPE svg PUBLIC "-//W3C//DTD SVG 20010904//EN"
 "http://www.w3.org/TR/2001/REC-SVG-20010904/DTD/svg10.dtd">
<svg version="1.0" xmlns="http://www.w3.org/2000/svg"
 width="512.000000pt" height="512.000000pt" viewBox="0 0 512.000000 512.000000"
 preserveAspectRatio="xMidYMid meet">
<metadata>
Created by potrace 1.14, written by Peter Selinger 2001-2017
</metadata>
<g transform="translate(0.000000,512.000000) scale(0.100000,-0.100000)"
fill="#000000" stroke="none">
<path d="M2219 5116 c-2 -2 -49 -6 -104 -9 -93 -6 -322 -34 -335 -42 -3 -2
-21 -6 -40 -9 -55 -9 -188 -51 -267 -85 -198 -85 -343 -203 -438 -356 -47 -75
-117 -245 -129 -315 -4 -19 -10 -48 -13 -65 -11 -53 -7 -199 7 -239 46 -141
142 -201 256 -162 50 17 104 21 104 8 0 -12 72 -86 102 -105 78 -49 227 -85
331 -81 151 6 329 101 381 202 19 37 18 37 59 15 193 -99 430 4 495 217 6 19
14 62 17 95 4 33 8 62 11 64 6 7 214 -30 312 -55 273 -71 449 -153 619 -289
231 -185 369 -419 439 -740 20 -93 28 -403 14 -503 -31 -208 -74 -366 -150
-558 -171 -429 -373 -700 -790 -1058 -160 -138 -419 -325 -765 -551 -530 -348
-529 -347 -539 -382 -7 -25 -4 -39 13 -67 28 -45 62 -52 166 -31 44 9 91 18
105 21 313 63 759 236 1095 424 106 59 347 209 390 242 6 5 60 45 120 91 61
45 124 94 140 108 17 15 55 48 85 74 370 320 686 739 849 1125 70 166 106 283
151 485 26 120 38 276 34 465 -3 191 -5 213 -18 315 -109 817 -629 1481 -1291
1649 -33 8 -80 17 -105 20 -25 3 -55 8 -67 10 -12 3 -48 7 -80 11 -32 3 -65 8
-73 10 -8 2 -42 7 -75 10 -33 4 -73 8 -90 10 -16 2 -68 7 -115 10 -47 4 -96 9
-110 11 -31 5 -696 14 -701 10z"/>
<path d="M2090 3436 c-127 -33 -202 -128 -203 -257 0 -69 22 -133 63 -177 18
-19 20 -35 20 -141 l0 -120 -32 -5 c-18 -3 -69 -8 -113 -11 -44 -3 -91 -7
-105 -10 -13 -2 -42 -7 -65 -10 -153 -22 -323 -86 -393 -149 -87 -79 -114
-215 -50 -255 43 -27 76 -25 108 8 17 16 30 37 30 45 0 26 1 30 23 60 48 68
228 115 540 139 l57 5 0 -102 c0 -78 5 -111 20 -143 l19 -42 -22 -7 c-12 -4
-26 -9 -32 -10 -66 -18 -168 -79 -227 -138 -48 -49 -93 -119 -133 -213 -19
-42 -40 -78 -47 -79 -122 -18 -298 -49 -353 -60 -38 -8 -81 -17 -95 -19 -86
-12 -415 -100 -538 -144 -333 -119 -442 -236 -327 -353 18 -19 55 -45 81 -58
48 -22 179 -52 279 -64 146 -17 253 -27 370 -35 130 -9 1063 -6 1120 3 17 2
73 7 125 11 52 3 180 15 284 26 l189 20 76 51 c141 94 295 232 407 363 75 87
204 283 204 309 0 48 -62 55 -461 56 l-215 1 -36 62 c-71 124 -183 216 -312
257 -61 20 -66 24 -53 39 24 26 30 60 31 166 l2 100 179 6 c99 4 197 12 218
18 88 28 195 109 265 201 53 70 115 213 127 293 6 34 -24 96 -47 98 -7 1 -24
3 -38 4 -43 4 -74 -27 -94 -97 -10 -34 -23 -67 -27 -73 -5 -5 -9 -15 -9 -22 0
-20 -62 -113 -104 -156 -75 -75 -99 -82 -296 -82 l-175 0 -1 117 c-1 111 1
119 23 139 35 34 64 123 62 190 -5 122 -102 232 -218 246 -20 2 -40 6 -46 7
-5 2 -30 -2 -55 -8z m148 -1341 c70 -10 144 -50 201 -106 54 -54 61 -69 34
-70 -46 -1 -256 -19 -298 -25 -16 -2 -61 -6 -100 -9 -38 -3 -83 -7 -100 -10
-16 -2 -61 -7 -98 -10 -37 -4 -77 -8 -88 -10 -27 -5 -24 11 12 66 93 145 239
204 437 174z"/>
</g>
</svg>
